<svg width="55" height="61" viewBox="0 0 55 61" fill="none" xmlns="http://www.w3.org/2000/svg">
<path d="M52.0589 8.35197C49.8381 7.36021 47.2444 8.40517 46.2767 10.6821L46.0225 11.2802V6.78808C46.0225 3.39431 43.3296 0.633301 40.0195 0.633301H6.003C2.69292 0.633301 0 3.39431 0 6.78808V53.945C0 57.3387 2.69292 60.0997 6.003 60.0997H40.0195C43.3296 60.0997 46.0225 57.3387 46.0225 53.945V33.8328C46.458 32.808 53.8487 15.4166 54.3316 14.2804C55.3015 11.998 54.285 9.34641 52.0589 8.35197V8.35197ZM30.5238 47.7507H21.8578C21.3885 47.7507 21.0082 48.1406 21.0082 48.6218C21.0082 49.103 21.3885 49.4929 21.8578 49.4929H29.7872C29.3859 50.4822 29.1838 51.5268 29.1906 52.6012V52.6013L29.2285 58.3576H6.003C3.62987 58.3576 1.69922 56.3781 1.69922 53.945V6.78808C1.69922 4.35495 3.62987 2.37548 6.003 2.37548H40.0195C42.3927 2.37548 44.3233 4.35495 44.3233 6.78808V15.2788C43.2497 17.805 40.2329 24.904 39.1832 27.3741H21.8579C21.3886 27.3741 21.0083 27.764 21.0083 28.2452C21.0083 28.7264 21.3886 29.1163 21.8579 29.1163H38.4429L37.3803 31.6168H21.8579C21.3886 31.6168 21.0083 32.0067 21.0083 32.4879C21.0083 32.9691 21.3886 33.359 21.8579 33.359H36.6399L32.3269 43.508H21.8579C21.3886 43.508 21.0083 43.8979 21.0083 44.3791C21.0083 44.8603 21.3886 45.2502 21.8579 45.2502H31.5865L30.5238 47.7507ZM30.89 52.5895C30.8882 52.3118 30.9061 52.037 30.9395 51.765C31.6825 52.097 30.6466 51.6342 35.4282 53.7703C35.2567 53.9805 35.0726 54.1811 34.873 54.3688L30.9259 58.0809L30.89 52.5895ZM44.3233 53.945C44.3233 56.3781 42.3927 58.3576 40.0195 58.3576H33.1455L36.0216 55.6528C36.8264 54.8958 37.4556 53.9916 37.8921 52.9649L44.3233 37.8312V53.945ZM36.3343 52.269C36.3336 52.2705 36.3328 52.272 36.3321 52.2736L34.6415 51.5184L38.6407 42.1079C38.828 41.6668 38.6313 41.1535 38.2011 40.9613C37.7708 40.7693 37.2702 40.9711 37.0828 41.4119L33.0837 50.8225L31.3932 50.0673C31.3938 50.0658 31.3943 50.0642 31.395 50.0627L44.3837 19.4987L46.0743 20.2539L38.6692 37.679C38.4818 38.1201 38.6786 38.6334 39.1087 38.8256C39.5414 39.0188 40.0406 38.8137 40.2271 38.375L47.6321 20.9497L49.3227 21.7049C49.1161 22.1913 36.5307 51.8066 36.3343 52.269ZM50.0016 20.1076L45.0625 17.9013L45.9056 15.9173L50.8448 18.1237L50.0016 20.1076ZM52.7737 13.5844L51.5235 16.5265L46.5843 14.3201L47.8346 11.378C48.4277 9.98184 50.0184 9.34084 51.3802 9.9492C52.7449 10.5587 53.3688 12.1847 52.7737 13.5844V13.5844Z" fill="#14BBEA"/>
</svg>
