<svg width="24" height="25" viewBox="0 0 24 25" fill="none" xmlns="http://www.w3.org/2000/svg">
<g clip-path="url(#clip0_63_606)">
<path d="M21.0005 0.287598H3.00049C1.34599 0.287598 0.000488281 1.64992 0.000488281 3.3251V21.5501C0.000488281 23.2253 1.34599 24.5876 3.00049 24.5876H21.0005C22.655 24.5876 24.0005 23.2253 24.0005 21.5501V3.3251C24.0005 1.64992 22.655 0.287598 21.0005 0.287598Z" fill="white"/>
<path d="M20.2505 12.4375H16.5005V9.4C16.5005 8.56165 17.1725 8.64062 18.0005 8.64062H19.5005V4.84375H16.5005C14.015 4.84375 12.0005 6.88343 12.0005 9.4V12.4375H9.00049V16.2344H12.0005V24.5875H16.5005V16.2344H18.7505L20.2505 12.4375Z" fill="black"/>
</g>
<defs>
<clipPath id="clip0_63_606">
<rect width="24" height="24.3" fill="white" transform="translate(0.000488281 0.287598)"/>
</clipPath>
</defs>
</svg>
