<svg width="24" height="25" viewBox="0 0 24 25" fill="none" xmlns="http://www.w3.org/2000/svg">
<g clip-path="url(#clip0_63_602)">
<path d="M22.2689 0.287598H1.73065C0.774658 0.287598 -0.000244141 1.07219 -0.000244141 2.04013V22.8351C-0.000244141 23.803 0.774658 24.5876 1.73065 24.5876H22.2689C23.2249 24.5876 23.9998 23.803 23.9998 22.8351V2.04013C23.9998 1.07219 23.2249 0.287598 22.2689 0.287598V0.287598ZM8.51269 18.655H5.59015V9.75253H8.51269V18.655ZM7.05151 8.5369H7.03247C6.05176 8.5369 5.41748 7.85335 5.41748 6.99906C5.41748 6.12548 6.07117 5.46084 7.07092 5.46084C8.07068 5.46084 8.68591 6.12548 8.70496 6.99906C8.70496 7.85335 8.07068 8.5369 7.05151 8.5369ZM19.0508 18.655H16.1286V13.8924C16.1286 12.6955 15.7054 11.8792 14.648 11.8792C13.8407 11.8792 13.3599 12.4298 13.1486 12.9613C13.0713 13.1516 13.0524 13.4174 13.0524 13.6834V18.655H10.1301C10.1301 18.655 10.1683 10.5877 10.1301 9.75253H13.0524V11.013C13.4408 10.4064 14.1357 9.54359 15.6862 9.54359C17.609 9.54359 19.0508 10.816 19.0508 13.5503V18.655Z" fill="white"/>
</g>
<defs>
<clipPath id="clip0_63_602">
<rect width="24" height="24.3" fill="white" transform="translate(-0.000244141 0.287598)"/>
</clipPath>
</defs>
</svg>
