<svg width="50" height="56" viewBox="0 0 50 56" fill="none" xmlns="http://www.w3.org/2000/svg">
<path d="M49.375 8.0625C49.3731 6.14035 48.6876 4.29755 47.469 2.93838C46.2505 1.57922 44.5983 0.814681 42.875 0.812501H34.75C33.1687 0.811439 31.6418 1.45619 30.4576 2.625H26.625C25.9397 2.6248 25.262 2.78617 24.6365 3.09853C24.0109 3.41089 23.4517 3.86719 22.9953 4.4375H21.5345C21.6777 3.99096 21.7506 3.52018 21.75 3.04593V1.71875C21.75 1.59974 21.729 1.48189 21.6882 1.37194C21.6473 1.26199 21.5875 1.16208 21.512 1.07793C21.4366 0.993774 21.347 0.927021 21.2484 0.881478C21.1499 0.835936 21.0442 0.812498 20.9375 0.812501H13.972C13.4974 0.812493 13.0306 0.947812 12.616 1.20561C12.2015 1.4634 11.8529 1.83511 11.6034 2.28545C11.3538 2.73578 11.2116 3.24979 11.1903 3.77865C11.169 4.30751 11.2692 4.83368 11.4815 5.30719L11.9996 6.46312L11.9999 12.5938H8.54534C6.96481 12.5938 5.42043 13.1212 4.11085 14.1082C2.80128 15.0952 1.7864 16.4967 1.19678 18.1323C0.607155 19.768 0.46975 21.563 0.802238 23.2864C1.13473 25.0099 1.9219 26.5829 3.0625 27.8033V55.1875H4.6875V40.6875H23.375V55.1875H25V27.3681L25.8315 25.9768L28.4912 28.2018C29.7426 29.2441 31.2617 29.8089 32.8234 29.8125C34.0488 29.8168 35.2548 29.4713 36.3265 28.8087C37.3983 28.1462 38.3002 27.1887 38.9464 26.0274L45.2267 14.8194C46.4474 14.2895 47.4963 13.3611 48.2365 12.1556C48.9766 10.9501 49.3734 9.52356 49.375 8.0625ZM34.75 2.625H38.5826C37.889 3.30403 37.3333 4.14031 36.9526 5.07799C36.5719 6.01567 36.375 7.03316 36.375 8.0625C36.375 9.09184 36.5719 10.1093 36.9526 11.047C37.3333 11.9847 37.889 12.821 38.5826 13.5H34.75C34.2979 13.5004 33.848 13.4305 33.4132 13.2923L34.2995 11.8094C34.5009 11.4725 34.6388 11.0935 34.705 10.6954C34.7712 10.2972 34.7643 9.88829 34.6846 9.49325C34.605 9.09822 34.4543 8.72532 34.2417 8.39715C34.029 8.06898 33.7589 7.79236 33.4476 7.58404L30.4239 5.56052C30.8351 4.67653 31.456 3.93535 32.2188 3.41774C32.9816 2.90012 33.8571 2.62592 34.75 2.625ZM12.476 14.4063L14.0131 16.1207L12.5817 17.318L12.1466 14.4063H12.476ZM19.3125 11.6875H22.9885C23.2708 12.0398 23.5932 12.3495 23.9476 12.6085C23.8091 12.5997 23.6706 12.5938 23.5324 12.5938H18.5V12.5903C18.8077 12.3337 19.0812 12.0297 19.3123 11.6875H19.3125ZM16.4869 16.1207L18.024 14.4063H18.3534L17.9183 17.318L16.4869 16.1207ZM15.25 14.9371L13.625 13.1246L13.6249 12.5914C14.4671 13.3007 15.525 13.6136 16.5716 13.463L15.25 14.9371ZM15.25 17.3516L15.9928 17.9729L15.5604 18.9375H14.9396L14.5072 17.9729L15.25 17.3516ZM15.1258 20.75H15.3742L15.9795 24.8005L15.9086 24.9059L14.6659 23.8278L15.1258 20.75ZM17.3274 22.796L16.9074 19.9855L17.3141 19.0782L18.0125 19.6625C18.1241 19.7559 18.2554 19.8156 18.3937 19.836C18.532 19.8563 18.6727 19.8366 18.8022 19.7787C18.9317 19.7209 19.0456 19.6268 19.1331 19.5056C19.2205 19.3843 19.2785 19.24 19.3014 19.0865L20.0008 14.4063H22.9688L17.3274 22.796ZM28.9767 10.2803L30.2093 7.53061L32.6115 9.13822C32.7343 9.22036 32.8408 9.32941 32.9246 9.45879C33.0084 9.58817 33.0678 9.73518 33.0992 9.89092C33.1306 10.0467 33.1334 10.2079 33.1073 10.3648C33.0812 10.5218 33.0268 10.6712 32.9474 10.804L30.11 15.5512L26.2812 12.5008L26.4625 12.2312C26.568 12.0744 26.625 11.8836 26.625 11.6875V9.1827C26.625 9.13451 26.6396 9.08772 26.6664 9.04993C26.6932 9.01214 26.7307 8.98555 26.7727 8.97447C26.8148 8.9634 26.859 8.96849 26.8981 8.98891C26.9372 9.00934 26.969 9.04391 26.9884 9.08701L27.5233 10.2803C27.5908 10.4308 27.6945 10.5574 27.8229 10.6459C27.9512 10.7344 28.0991 10.7813 28.25 10.7813C28.4009 10.7813 28.5488 10.7344 28.6772 10.6459C28.8055 10.5574 28.9092 10.4308 28.9767 10.2803ZM32.4781 14.8567C33.2046 15.16 33.9743 15.3144 34.75 15.3125H35.7874L33.7033 19.3805L31.1409 17.094L32.4781 14.8567ZM26.625 4.4375H29.1245C28.5859 5.47252 28.2871 6.64097 28.2551 7.83717L28.226 7.90226C27.9889 7.57803 27.6677 7.34355 27.3064 7.23099C26.9452 7.11843 26.5615 7.1333 26.2081 7.27357C25.8547 7.41383 25.5489 7.67262 25.3326 8.01443C25.1163 8.35624 25.0001 8.76433 25 9.1827V11.201C24.3804 10.8021 23.8962 10.1862 23.6224 9.44906C23.3486 8.71186 23.3006 7.8945 23.4858 7.12376C23.6709 6.35301 24.079 5.67197 24.6466 5.18628C25.2142 4.70058 25.9096 4.43738 26.625 4.4375ZM22.0278 9.875H19.3125C18.8815 9.875 18.4682 9.68404 18.1635 9.34413C17.8587 9.00422 17.6875 8.54321 17.6875 8.0625C17.6875 7.5818 17.8587 7.12078 18.1635 6.78087C18.4682 6.44096 18.8815 6.25 19.3125 6.25H22.0295C21.6574 7.42258 21.6568 8.70197 22.0278 9.875ZM13.972 2.625H20.125V3.04593C20.1258 3.54925 19.9769 4.03865 19.7016 4.4375H19.3125C18.5953 4.43688 17.8983 4.70231 17.3311 5.192C17.0598 5.07718 16.8134 4.89953 16.6082 4.67076L15.8245 3.7967C15.6917 3.64857 15.517 3.55633 15.3301 3.53569C15.1432 3.51505 14.9556 3.56727 14.7993 3.68347L13.1276 4.92652L12.9349 4.49658C12.8465 4.2994 12.8048 4.08031 12.8137 3.86009C12.8226 3.63987 12.8818 3.42584 12.9857 3.23832C13.0896 3.05081 13.2348 2.89603 13.4074 2.78869C13.58 2.68134 13.7744 2.625 13.972 2.625ZM13.6247 6.73525L15.1465 5.60367L15.4591 5.95236C15.7119 6.23437 16 6.47382 16.3146 6.66318C16.0192 7.44972 15.9822 8.32733 16.21 9.14137C16.4379 9.9554 16.916 10.6536 17.5601 11.113C17.2001 11.4261 16.7685 11.6201 16.3144 11.6728C15.8604 11.7256 15.4021 11.6351 14.992 11.4116C14.5818 11.1881 14.2361 10.8406 13.9944 10.4087C13.7526 9.97671 13.6245 9.47772 13.6247 8.96853V6.73525ZM2.25 21.428C2.25189 19.5663 2.91575 17.7816 4.09594 16.4652C5.27614 15.1488 6.87629 14.4084 8.54534 14.4063H10.4992L11.1986 19.0865C11.2215 19.24 11.2795 19.3843 11.3669 19.5056C11.4544 19.6268 11.5683 19.7209 11.6978 19.7787C11.8273 19.8366 11.968 19.8563 12.1063 19.836C12.2446 19.8156 12.3759 19.7559 12.4875 19.6625L13.1859 19.0782L13.5926 19.9855L13.2075 22.5626L9.24885 19.1284L8.25117 20.5591L15.5637 26.9029C15.6488 26.9768 15.7464 27.031 15.8505 27.0624C15.9547 27.0938 16.0634 27.1017 16.1704 27.0857C16.2773 27.0698 16.3803 27.0302 16.4734 26.9693C16.5665 26.9084 16.6478 26.8275 16.7125 26.7312L25.306 13.9512L29.2082 17.0601L20.8266 31.083C20.3245 31.9231 19.672 32.6383 18.9102 33.1837C18.1484 33.729 17.2937 34.0928 16.3998 34.2521C15.5059 34.4113 14.5921 34.3627 13.7159 34.1092C12.8396 33.8557 12.0199 33.4029 11.3081 32.7791L4.65592 26.9493C3.90415 26.2943 3.29657 25.4564 2.87958 24.4995C2.4626 23.5425 2.24725 22.4919 2.25 21.428ZM23.375 38.875H4.6875V29.282L10.3041 34.2043C11.1921 34.9825 12.2148 35.5474 13.3079 35.8637C14.401 36.1799 15.541 36.2406 16.6561 36.0419C17.7713 35.8432 18.8375 35.3894 19.7879 34.709C20.7383 34.0286 21.5523 33.1364 22.1787 32.0884L23.375 30.0868V38.875ZM37.5683 25.0667C37.0676 25.9666 36.3687 26.7087 35.5381 27.2221C34.7076 27.7356 33.773 28.0034 32.8234 28C31.6132 27.9972 30.4359 27.5595 29.4662 26.7518L26.7343 24.4665L30.2361 18.6078L33.4299 21.4577C33.5216 21.5394 33.628 21.5981 33.7419 21.6296C33.8558 21.6611 33.9744 21.6647 34.0897 21.6402C34.205 21.6157 34.3141 21.5636 34.4096 21.4876C34.5051 21.4115 34.5847 21.3133 34.6429 21.1996L37.4898 15.6427L41.4387 18.1596L37.5683 25.0667ZM42.3006 16.6214L40.247 15.3125H42.875C42.9292 15.3125 42.9827 15.3094 43.0366 15.3079L42.3006 16.6214ZM42.875 13.5C41.9108 13.5 40.9683 13.1811 40.1666 12.5836C39.3649 11.9861 38.7401 11.1369 38.3711 10.1433C38.0021 9.14977 37.9056 8.05647 38.0937 7.0017C38.2818 5.94693 38.7461 4.97806 39.4279 4.21761C40.1096 3.45716 40.9783 2.93929 41.9239 2.72948C42.8696 2.51967 43.8498 2.62735 44.7406 3.03891C45.6314 3.45046 46.3927 4.1474 46.9284 5.04159C47.4641 5.93578 47.75 6.98707 47.75 8.0625C47.7485 9.50412 47.2345 10.8862 46.3205 11.9056C45.4066 12.925 44.1675 13.4984 42.875 13.5Z" fill="#14BBEA"/>
</svg>
