<svg width="29" height="28" viewBox="0 0 29 28" fill="none" xmlns="http://www.w3.org/2000/svg">
<path fill-rule="evenodd" clip-rule="evenodd" d="M26.6243 10.8845C26.8698 11.8826 27 12.9261 27 14C27 21.1797 21.1797 27 14 27C6.8203 27 1 21.1797 1 14C1 6.8203 6.8203 1 14 1C16.4383 1 18.7197 1.67126 20.6697 2.83907L21.3972 2.11158C19.2508 0.773247 16.7157 0 14 0C6.26801 0 0 6.26801 0 14C0 21.732 6.26801 28 14 28C21.732 28 28 21.732 28 14C28 12.635 27.8047 11.3157 27.4404 10.0684L26.6243 10.8845Z" fill="#F0AB00"/>
<path d="M6.00879 13.5L11.0088 18.5L27.5088 2" stroke="#F0AB00" stroke-width="3"/>
</svg>
