<svg width="24" height="25" viewBox="0 0 24 25" fill="none" xmlns="http://www.w3.org/2000/svg">
<g clip-path="url(#clip0_63_604)">
<path d="M22.2689 0.287598H1.73065C0.774658 0.287598 -0.000244141 1.07219 -0.000244141 2.04013V22.8351C-0.000244141 23.803 0.774658 24.5876 1.73065 24.5876H22.2689C23.2249 24.5876 23.9998 23.803 23.9998 22.8351V2.04013C23.9998 1.07219 23.2249 0.287598 22.2689 0.287598V0.287598ZM17.4788 9.76087C17.4841 9.88045 17.4867 10.0006 17.4867 10.1213C17.4867 13.8064 14.7163 18.0558 9.64996 18.056H9.65015H9.64996C8.09448 18.056 6.64703 17.5943 5.4281 16.8033C5.64362 16.829 5.86298 16.8418 6.08508 16.8418C7.37561 16.8418 8.56323 16.3961 9.50604 15.6481C8.30029 15.6255 7.28369 14.8192 6.93286 13.7111C7.10077 13.7437 7.27344 13.7615 7.4505 13.7615C7.7019 13.7615 7.94543 13.7272 8.17688 13.6632C6.91656 13.4078 5.96716 12.28 5.96716 10.9296C5.96716 10.917 5.96716 10.9057 5.96753 10.894C6.33868 11.1029 6.76312 11.2286 7.21503 11.2427C6.47546 10.7431 5.98932 9.88898 5.98932 8.92141C5.98932 8.41046 6.12573 7.93177 6.3623 7.51964C7.72058 9.2071 9.75049 10.3169 12.0397 10.4335C11.9924 10.2292 11.9681 10.0163 11.9681 9.79758C11.9681 8.25807 13.2017 7.00907 14.7227 7.00907C15.515 7.00907 16.2306 7.34815 16.7332 7.89025C17.3607 7.76492 17.9499 7.53281 18.4822 7.21337C18.2762 7.86429 17.8397 8.41046 17.271 8.75585C17.8282 8.68837 18.3592 8.53876 18.8527 8.31665C18.4841 8.87599 18.0166 9.36728 17.4788 9.76087Z" fill="white"/>
</g>
<defs>
<clipPath id="clip0_63_604">
<rect width="24" height="24.3" fill="white" transform="translate(-0.000244141 0.287598)"/>
</clipPath>
</defs>
</svg>
