<svg width="393" height="330" viewBox="0 0 393 330" fill="none" xmlns="http://www.w3.org/2000/svg">
<g opacity="0.8">
<path fill-rule="evenodd" clip-rule="evenodd" d="M315.388 2L351.434 8.51799L352.91 8.78489L352.524 10.2344L344.081 41.9494L341.129 41.4156L348.745 12.8094L158.063 113.409L156.906 114.02L156.165 113.066L132.57 82.6896L17.3066 143.5L16 140.937L132.421 79.5153L133.578 78.9049L134.319 79.8585L157.913 110.235L346.608 10.6838L314.616 4.89903L315.388 2ZM282.976 84.5433H309.804C323.611 84.5433 334.804 95.7362 334.804 109.543V320.434H282.976V84.5433ZM275.976 77.5433H282.976H309.804C327.477 77.5433 341.804 91.8702 341.804 109.543V320.434V321.5H391V327.5H98.4397V328.256H91.4397H39.6117H32.6117V327.5H2V321.5H32.6117V321.256V177.43V170.43H39.6117H66.4397C84.1128 170.43 98.4397 184.757 98.4397 202.43V321.256V321.5H154.294V320.434V135.508V128.508H161.294H188.122C205.795 128.508 220.122 142.835 220.122 160.508V320.434V321.5H275.976V320.434V84.5433V77.5433ZM188.122 135.508H161.294V320.434H213.122V160.508C213.122 146.701 201.929 135.508 188.122 135.508ZM66.4397 177.43H39.6117V321.256H91.4397V202.43C91.4397 188.623 80.2468 177.43 66.4397 177.43Z" fill="#14BBEA"/>
<path d="M351.434 8.51799L351.167 9.99405V9.99405L351.434 8.51799ZM315.388 2L315.655 0.523937L314.294 0.277891L313.939 1.61412L315.388 2ZM352.91 8.78489L354.36 9.17079L354.778 7.59837L353.177 7.30883L352.91 8.78489ZM352.524 10.2344L351.075 9.84851V9.84852L352.524 10.2344ZM344.081 41.9494L343.814 43.4254L345.175 43.6715L345.531 42.3352L344.081 41.9494ZM341.129 41.4156L339.68 41.0297L339.261 42.6021L340.862 42.8916L341.129 41.4156ZM348.745 12.8094L350.194 13.1953L351.076 9.88361L348.045 11.4827L348.745 12.8094ZM158.063 113.409L157.363 112.083L158.063 113.409ZM156.906 114.02L155.721 114.94L156.493 115.934L157.606 115.347L156.906 114.02ZM156.165 113.066L157.35 112.146L157.35 112.146L156.165 113.066ZM132.57 82.6896L133.755 81.7694L132.983 80.7758L131.871 81.3629L132.57 82.6896ZM17.3066 143.5L15.9702 144.182L16.661 145.537L18.0066 144.827L17.3066 143.5ZM16 140.937L15.3001 139.61L13.992 140.3L14.6636 141.618L16 140.937ZM132.421 79.5153L133.121 80.842L132.421 79.5153ZM133.578 78.9049L134.763 77.9847L133.991 76.9911L132.878 77.5782L133.578 78.9049ZM134.319 79.8585L135.503 78.9383L134.319 79.8585ZM157.913 110.235L156.729 111.155L157.5 112.149L158.613 111.562L157.913 110.235ZM346.608 10.6838L347.307 12.0105L351.153 9.98146L346.874 9.20773L346.608 10.6838ZM314.616 4.89903L313.167 4.51315L312.748 6.08556L314.349 6.37509L314.616 4.89903ZM282.976 84.5433V83.0433H281.476V84.5433H282.976ZM334.804 320.434V321.934H336.304V320.434H334.804ZM282.976 320.434H281.476V321.934H282.976V320.434ZM275.976 77.5433V76.0433H274.476V77.5433H275.976ZM341.804 321.5H340.304V323H341.804V321.5ZM391 321.5H392.5V320H391V321.5ZM391 327.5V329H392.5V327.5H391ZM98.4397 327.5V326H96.9397V327.5H98.4397ZM98.4397 328.256V329.756H99.9397V328.256H98.4397ZM32.6117 328.256H31.1117V329.756H32.6117V328.256ZM32.6117 327.5H34.1117V326H32.6117V327.5ZM2 327.5H0.5V329H2V327.5ZM2 321.5V320H0.5V321.5H2ZM32.6117 321.5V323H34.1117V321.5H32.6117ZM32.6117 170.43V168.93H31.1117V170.43H32.6117ZM98.4397 321.5H96.9397V323H98.4397V321.5ZM154.294 321.5V323H155.794V321.5H154.294ZM154.294 128.508V127.008H152.794V128.508H154.294ZM220.122 321.5H218.622V323H220.122V321.5ZM275.976 321.5V323H277.476V321.5H275.976ZM161.294 135.508V134.008H159.794V135.508H161.294ZM161.294 320.434H159.794V321.934H161.294V320.434ZM213.122 320.434V321.934H214.622V320.434H213.122ZM39.6117 177.43V175.93H38.1117V177.43H39.6117ZM39.6117 321.256H38.1117V322.756H39.6117V321.256ZM91.4397 321.256V322.756H92.9397V321.256H91.4397ZM351.701 7.04192L315.655 0.523937L315.121 3.47606L351.167 9.99405L351.701 7.04192ZM353.177 7.30883L351.701 7.04192L351.167 9.99405L352.643 10.261L353.177 7.30883ZM353.974 10.6203L354.36 9.17079L351.461 8.399L351.075 9.84851L353.974 10.6203ZM345.531 42.3352L353.974 10.6203L351.075 9.84852L342.632 41.5635L345.531 42.3352ZM340.862 42.8916L343.814 43.4254L344.348 40.4733L341.396 39.9395L340.862 42.8916ZM347.295 12.4235L339.68 41.0297L342.579 41.8014L350.194 13.1953L347.295 12.4235ZM158.763 114.736L349.445 14.1361L348.045 11.4827L157.363 112.083L158.763 114.736ZM157.606 115.347L158.763 114.736L157.363 112.083L156.206 112.693L157.606 115.347ZM154.98 113.986L155.721 114.94L158.09 113.1L157.35 112.146L154.98 113.986ZM131.386 83.6097L154.98 113.986L157.35 112.146L133.755 81.7694L131.386 83.6097ZM18.0066 144.827L133.27 84.0162L131.871 81.3629L16.6067 142.174L18.0066 144.827ZM14.6636 141.618L15.9702 144.182L18.6431 142.819L17.3364 140.256L14.6636 141.618ZM131.721 78.1886L15.3001 139.61L16.6999 142.263L133.121 80.842L131.721 78.1886ZM132.878 77.5782L131.721 78.1886L133.121 80.842L134.278 80.2315L132.878 77.5782ZM135.503 78.9383L134.763 77.9847L132.393 79.825L133.134 80.7786L135.503 78.9383ZM159.098 109.315L135.503 78.9383L133.134 80.7786L156.729 111.155L159.098 109.315ZM345.908 9.35711L157.213 108.908L158.613 111.562L347.307 12.0105L345.908 9.35711ZM314.349 6.37509L346.341 12.1599L346.874 9.20773L314.883 3.42297L314.349 6.37509ZM313.939 1.61412L313.167 4.51315L316.066 5.28491L316.838 2.38588L313.939 1.61412ZM309.804 83.0433H282.976V86.0433H309.804V83.0433ZM336.304 109.543C336.304 94.9078 324.439 83.0433 309.804 83.0433V86.0433C322.783 86.0433 333.304 96.5646 333.304 109.543H336.304ZM336.304 320.434V109.543H333.304V320.434H336.304ZM282.976 321.934H334.804V318.934H282.976V321.934ZM281.476 84.5433V320.434H284.476V84.5433H281.476ZM282.976 76.0433H275.976V79.0433H282.976V76.0433ZM309.804 76.0433H282.976V79.0433H309.804V76.0433ZM343.304 109.543C343.304 91.0418 328.305 76.0433 309.804 76.0433V79.0433C326.648 79.0433 340.304 92.6986 340.304 109.543H343.304ZM343.304 320.434V109.543H340.304V320.434H343.304ZM343.304 321.5V320.434H340.304V321.5H343.304ZM341.804 323H391V320H341.804V323ZM389.5 321.5V327.5H392.5V321.5H389.5ZM391 326H98.4397V329H391V326ZM96.9397 327.5V328.256H99.9397V327.5H96.9397ZM98.4397 326.756H91.4397V329.756H98.4397V326.756ZM91.4397 326.756H39.6117V329.756H91.4397V326.756ZM39.6117 326.756H32.6117V329.756H39.6117V326.756ZM34.1117 328.256V327.5H31.1117V328.256H34.1117ZM32.6117 326H2V329H32.6117V326ZM3.5 327.5V321.5H0.5V327.5H3.5ZM2 323H32.6117V320H2V323ZM34.1117 321.5V321.256H31.1117V321.5H34.1117ZM34.1117 321.256V177.43H31.1117V321.256H34.1117ZM34.1117 177.43V170.43H31.1117V177.43H34.1117ZM32.6117 171.93H39.6117V168.93H32.6117V171.93ZM39.6117 171.93H66.4397V168.93H39.6117V171.93ZM66.4397 171.93C83.2843 171.93 96.9397 185.586 96.9397 202.43H99.9397C99.9397 183.929 84.9412 168.93 66.4397 168.93V171.93ZM96.9397 202.43V321.256H99.9397V202.43H96.9397ZM96.9397 321.256V321.5H99.9397V321.256H96.9397ZM98.4397 323H154.294V320H98.4397V323ZM155.794 321.5V320.434H152.794V321.5H155.794ZM155.794 320.434V135.508H152.794V320.434H155.794ZM155.794 135.508V128.508H152.794V135.508H155.794ZM154.294 130.008H161.294V127.008H154.294V130.008ZM161.294 130.008H188.122V127.008H161.294V130.008ZM188.122 130.008C204.966 130.008 218.622 143.663 218.622 160.508H221.622C221.622 142.006 206.623 127.008 188.122 127.008V130.008ZM218.622 160.508V320.434H221.622V160.508H218.622ZM218.622 320.434V321.5H221.622V320.434H218.622ZM220.122 323H275.976V320H220.122V323ZM274.476 320.434V321.5H277.476V320.434H274.476ZM274.476 84.5433V320.434H277.476V84.5433H274.476ZM274.476 77.5433V84.5433H277.476V77.5433H274.476ZM161.294 137.008H188.122V134.008H161.294V137.008ZM162.794 320.434V135.508H159.794V320.434H162.794ZM213.122 318.934H161.294V321.934H213.122V318.934ZM211.622 160.508V320.434H214.622V160.508H211.622ZM188.122 137.008C201.1 137.008 211.622 147.529 211.622 160.508H214.622C214.622 145.872 202.757 134.008 188.122 134.008V137.008ZM39.6117 178.93H66.4397V175.93H39.6117V178.93ZM41.1117 321.256V177.43H38.1117V321.256H41.1117ZM91.4397 319.756H39.6117V322.756H91.4397V319.756ZM89.9397 202.43V321.256H92.9397V202.43H89.9397ZM66.4397 178.93C79.4184 178.93 89.9397 189.452 89.9397 202.43H92.9397C92.9397 187.795 81.0752 175.93 66.4397 175.93V178.93Z" fill="#14BBEA"/>
</g>
</svg>
